# xmcd
#
# Track frame offsets:
#	150
#	11849
#	21956
#	26319
#	41909
#	43715
#	54374
#	73560
#	74953
#	87908
#	105250
#	109125
#	128389
#	142734
#	155646
#	156180
#	174634
#
# Disc length: 2360 seconds
# Revision: 0
# Processed by: cddbd v1.5.2PL0 Copyright (c) Steve Scherf et al.
# Submitted via: dBpowerAMP V12.0
#
DISCID=e0093611
DTITLE=Bela B feat. Peta Devlin and Smokestack Lightnin' - Bastard
DYEAR=2017
DGENRE=
TTITLE0=Sartana Theme (feat. Rainer Brandt)
TTITLE1=Der Dreck von Indian Creek
TTITLE2=Neulich in Lee Tse Tungs Gambling House (Sartana, Pigott, Lee Tse Tung)
TTITLE3=Warum denn kein Chop Suey
TTITLE4=Sehe ich denn so hilfsbedürftig aus, Mister? (Jasmine, Sartana)
TTITLE5=Das schwache Geschlecht
TTITLE6=Zuhaus
TTITLE7=Im staubigen Staub der Staubwüste (Rainer Brandt)
TTITLE8=Showdown
TTITLE9=Ode an das Bahnhofskino
TTITLE10=Sartana trifft die Pigott-Brüder (Rainer Brandt, Sartana, die Gebrüder Pigott)
TTITLE11=Noch warm und schon Sand drauf
TTITLE12=Missgeschick and Blei
TTITLE13=Einer bleibt liegen
TTITLE14=Halt, halt... Stop! (Peta Devlin, Bela B)
TTITLE15=Bärenjagd
TTITLE16=Au Repertoire (Jasmine, Sartana)
EXTD=
EXTT0=
EXTT1=
EXTT2=
EXTT3=
EXTT4=
EXTT5=
EXTT6=
EXTT7=
EXTT8=
EXTT9=
EXTT10=
EXTT11=
EXTT12=
EXTT13=
EXTT14=
EXTT15=
EXTT16=
PLAYORDER=
